<svg width="80" height="80" viewBox="0 0 80 80" fill="none" xmlns="http://www.w3.org/2000/svg">
<path d="M36.3157 76.0618V73.0729C28.8097 72.235 21.8117 68.8694 16.4712 63.5288C11.1306 58.1883 7.76506 51.1903 6.92719 43.6842H3.93806C4.79758 51.9779 8.48498 59.7231 14.3809 65.619C20.2768 71.5149 28.0221 75.2023 36.3157 76.0618Z" fill="url(#paint0_linear_1_28)"/>
<path d="M35.8157 79.4479C26.7969 78.49 18.372 74.4698 11.9511 68.0489C5.53017 61.6279 1.50996 53.203 0.552059 44.1842H2.5342C3.49448 52.6754 7.30728 60.5951 13.356 66.6439C19.4048 72.6927 27.3245 76.5055 35.8157 77.4658V79.4479Z" stroke="#19C2EF" stroke-opacity="0.4"/>
<path d="M76.0619 43.6842H73.0728C72.2349 51.1903 68.8692 58.1882 63.5287 63.5288C58.1881 68.8694 51.1902 72.235 43.6841 73.0729V76.0618C51.9778 75.2023 59.7231 71.5149 65.619 65.619C71.515 59.7231 75.2024 51.9779 76.0619 43.6842Z" fill="url(#paint1_linear_1_28)"/>
<path d="M66.6438 66.6439C72.6926 60.5952 76.5054 52.6754 77.4656 44.1842H79.4479C78.49 53.203 74.4698 61.6279 68.0488 68.0489C61.6278 74.4698 53.2029 78.49 44.1841 79.4479V77.4658C52.6753 76.5055 60.5951 72.6927 66.6438 66.6439Z" stroke="#19C2EF" stroke-opacity="0.4"/>
<path d="M44.1841 0.552062C53.203 1.51003 61.6279 5.53029 68.0488 11.9513C74.4698 18.3722 78.49 26.7972 79.4479 35.816H77.4658C76.5055 27.3248 72.6927 19.405 66.6439 13.3563C60.5951 7.30751 52.6753 3.49473 44.1841 2.5345V0.552062Z" stroke="#19C2EF" stroke-opacity="0.4"/>
<path d="M43.6841 3.93813V6.92725C51.1902 7.76515 58.1882 11.1308 63.5287 16.4713C68.8693 21.8119 72.2349 28.8099 73.0728 36.3159H76.0619C75.2024 28.0222 71.515 20.277 65.619 14.381C59.7231 8.48508 51.9778 4.79766 43.6841 3.93813Z" fill="url(#paint2_linear_1_28)"/>
<path d="M4.49674 35.8159C5.44778 27.845 9.05049 20.4184 14.7344 14.7346C20.4182 9.05069 27.8448 5.44799 35.8157 4.49694V6.48294C28.3654 7.41461 21.4328 10.8025 16.1176 16.1177C10.8024 21.433 7.41452 28.3656 6.48289 35.8159H4.49674Z" stroke="#19C2EF" stroke-opacity="0.4"/>
<g filter="url(#filter0_d_1_28)">
<path d="M40 70.1869C34.0296 70.1869 28.1933 68.4165 23.2291 65.0995C18.2649 61.7826 14.3958 57.068 12.111 51.5521C9.82627 46.0362 9.22847 39.9666 10.3932 34.111C11.558 28.2553 14.433 22.8766 18.6547 18.6549C22.8764 14.4332 28.2552 11.5581 34.1108 10.3934C39.9665 9.22862 46.0361 9.82642 51.552 12.1112C57.0679 14.396 61.7824 18.2651 65.0994 23.2293C68.4163 28.1934 70.1868 34.0298 70.1868 40.0001C70.1777 48.0034 66.9944 55.6762 61.3352 61.3354C55.6761 66.9945 48.0032 70.1778 40 70.1869ZM40 10.7639C34.2176 10.7639 28.5651 12.4785 23.7573 15.691C18.9494 18.9035 15.2021 23.4695 12.9893 28.8117C10.7764 34.1539 10.1974 40.0323 11.3255 45.7035C12.4535 51.3748 15.238 56.5842 19.3267 60.6729C23.4154 64.7617 28.6248 67.5462 34.296 68.6743C39.9673 69.8024 45.8457 69.2235 51.1879 67.0107C56.5301 64.7979 61.0962 61.0506 64.3087 56.2428C67.5212 51.435 69.2359 45.7825 69.2359 40.0001C69.2272 32.2489 66.1442 24.8177 60.6633 19.3367C55.1824 13.8558 47.7512 10.7727 40 10.7639Z" fill="#DC9535"/>
</g>
<path d="M40 51.1715C37.7905 51.1715 35.6306 50.5163 33.7935 49.2888C31.9563 48.0612 30.5244 46.3164 29.6789 44.2751C28.8334 42.2338 28.6122 39.9876 29.0432 37.8205C29.4743 35.6535 30.5383 33.6629 32.1007 32.1005C33.663 30.5382 35.6536 29.4742 37.8207 29.0432C39.9878 28.6122 42.234 28.8334 44.2753 29.679C46.3166 30.5245 48.0613 31.9564 49.2888 33.7936C50.5164 35.6308 51.1715 37.7907 51.1715 40.0002C51.1681 42.962 49.99 45.8015 47.8957 47.8958C45.8013 49.9901 42.9618 51.1682 40 51.1715ZM40 29.7794C37.9785 29.7794 36.0024 30.3788 34.3216 31.5018C32.6408 32.6249 31.3307 34.2211 30.5571 36.0888C29.7835 37.9564 29.5811 40.0114 29.9754 41.9941C30.3698 43.9767 31.3432 45.7979 32.7726 47.2273C34.202 48.6567 36.0232 49.6302 38.0058 50.0246C39.9885 50.419 42.0435 50.2166 43.9111 49.443C45.7788 48.6694 47.375 47.3594 48.4981 45.6786C49.6212 43.9978 50.2206 42.0217 50.2206 40.0002C50.2176 37.2904 49.1398 34.6925 47.2237 32.7764C45.3077 30.8603 42.7098 29.7825 40 29.7794Z" fill="#19C2EF"/>
<g filter="url(#filter1_d_1_28)">
<path d="M42.3768 40.0002C42.3768 40.4703 42.2374 40.9298 41.9762 41.3207C41.715 41.7115 41.3438 42.0162 40.9095 42.1961C40.4751 42.3759 39.9972 42.423 39.5362 42.3313C39.0751 42.2395 38.6516 42.0132 38.3192 41.6807C37.9868 41.3483 37.7604 40.9248 37.6687 40.4637C37.577 40.0026 37.6241 39.5247 37.804 39.0904C37.9839 38.6561 38.2886 38.2849 38.6795 38.0237C39.0703 37.7625 39.5299 37.6232 40 37.6232C40.3121 37.6232 40.6212 37.6847 40.9096 37.8041C41.198 37.9236 41.46 38.0987 41.6807 38.3194C41.9014 38.5401 42.0765 38.8021 42.1959 39.0905C42.3154 39.3789 42.3769 39.688 42.3768 40.0002Z" fill="#FFD233"/>
</g>
<path d="M40 55.6084C39.9376 55.6084 39.8758 55.5962 39.8181 55.5723C39.7604 55.5484 39.708 55.5134 39.6638 55.4693C39.6197 55.4251 39.5847 55.3727 39.5608 55.315C39.5369 55.2574 39.5246 55.1956 39.5246 55.1331V50.6962C39.5246 50.5701 39.5747 50.4492 39.6638 50.3601C39.753 50.2709 39.8739 50.2208 39.9999 50.2208C40.126 50.2208 40.2469 50.2709 40.3361 50.3601C40.4252 50.4492 40.4753 50.5701 40.4753 50.6962V55.1331C40.4753 55.1955 40.463 55.2574 40.4391 55.315C40.4152 55.3727 40.3802 55.4251 40.3361 55.4692C40.292 55.5134 40.2396 55.5484 40.1819 55.5723C40.1242 55.5961 40.0624 55.6084 40 55.6084Z" fill="#19C2EF"/>
<path d="M40 29.7793C39.8739 29.7793 39.753 29.7293 39.6639 29.6401C39.5747 29.551 39.5246 29.4301 39.5246 29.3041V24.8671C39.5246 24.741 39.5747 24.6201 39.6638 24.5309C39.753 24.4418 39.8739 24.3917 39.9999 24.3917C40.126 24.3917 40.2469 24.4418 40.3361 24.5309C40.4252 24.6201 40.4753 24.741 40.4753 24.8671V29.3041C40.4753 29.4301 40.4252 29.551 40.336 29.6401C40.2469 29.7292 40.126 29.7793 40 29.7793Z" fill="#19C2EF"/>
<path d="M29.3038 40.4754H24.867C24.7409 40.4754 24.62 40.4253 24.5308 40.3361C24.4416 40.247 24.3915 40.1261 24.3915 40C24.3915 39.8739 24.4416 39.7529 24.5308 39.6638C24.62 39.5746 24.7409 39.5245 24.867 39.5245H29.3038C29.4299 39.5245 29.5508 39.5746 29.64 39.6638C29.7292 39.7529 29.7793 39.8739 29.7793 40C29.7793 40.1261 29.7292 40.247 29.64 40.3361C29.5508 40.4253 29.4299 40.4754 29.3038 40.4754Z" fill="#19C2EF"/>
<path d="M55.133 40.4754H50.6961C50.57 40.4754 50.4491 40.4253 50.3599 40.3361C50.2708 40.247 50.2207 40.1261 50.2207 40C50.2207 39.8739 50.2708 39.7529 50.3599 39.6638C50.4491 39.5746 50.57 39.5245 50.6961 39.5245H55.133C55.259 39.5245 55.38 39.5746 55.4691 39.6638C55.5583 39.7529 55.6084 39.8739 55.6084 40C55.6084 40.1261 55.5583 40.247 55.4691 40.3361C55.38 40.4253 55.259 40.4754 55.133 40.4754Z" fill="#19C2EF"/>
<path d="M29.2992 51.1762C29.2052 51.1762 29.1133 51.1483 29.0351 51.096C28.957 51.0437 28.896 50.9695 28.8601 50.8826C28.8241 50.7958 28.8147 50.7002 28.8331 50.608C28.8514 50.5157 28.8967 50.431 28.9632 50.3646L32.1005 47.2271C32.1447 47.183 32.1971 47.1479 32.2547 47.1241C32.3124 47.1002 32.3742 47.0879 32.4367 47.0879C32.4991 47.0879 32.5609 47.1002 32.6186 47.1241C32.6763 47.148 32.7287 47.183 32.7728 47.2272C32.817 47.2713 32.852 47.3237 32.8758 47.3814C32.8997 47.4391 32.912 47.5009 32.912 47.5633C32.912 47.6258 32.8997 47.6876 32.8758 47.7452C32.8519 47.8029 32.8169 47.8553 32.7727 47.8995L29.6354 51.0369C29.5913 51.0812 29.5389 51.1162 29.4812 51.1401C29.4235 51.164 29.3617 51.1763 29.2992 51.1762Z" fill="#19C2EF"/>
<path d="M47.8995 32.7729L47.2272 32.1009L53.1248 26.2026H66.5631V27.1534H53.5189L47.8995 32.7729Z" fill="#19C2EF"/>
<path d="M32.4367 32.9121C32.3743 32.9122 32.3124 32.8999 32.2547 32.876C32.197 32.8521 32.1446 32.8171 32.1005 32.7728L28.9632 29.6354C28.9189 29.5913 28.8837 29.5389 28.8597 29.4812C28.8357 29.4235 28.8233 29.3616 28.8233 29.2991C28.8232 29.2366 28.8355 29.1747 28.8594 29.1169C28.8833 29.0591 28.9183 29.0067 28.9625 28.9625C29.0067 28.9183 29.0592 28.8832 29.117 28.8594C29.1747 28.8355 29.2366 28.8232 29.2991 28.8233C29.3616 28.8234 29.4235 28.8358 29.4812 28.8598C29.5389 28.8838 29.5913 28.919 29.6354 28.9633L32.7728 32.1008C32.8392 32.1672 32.8845 32.2519 32.9028 32.3441C32.9211 32.4363 32.9117 32.5318 32.8757 32.6187C32.8398 32.7055 32.7789 32.7797 32.7007 32.832C32.6226 32.8842 32.5307 32.9121 32.4367 32.9121Z" fill="#19C2EF"/>
<path d="M66.7651 53.3901H52.7176L47.2271 47.8995C47.1381 47.8103 47.0881 47.6895 47.0882 47.5635C47.0883 47.4375 47.1383 47.3167 47.2274 47.2276C47.3165 47.1385 47.4373 47.0884 47.5633 47.0883C47.6892 47.0882 47.8101 47.1382 47.8993 47.2271L53.1115 52.4393H66.7651C66.8912 52.4393 67.0121 52.4894 67.1013 52.5786C67.1905 52.6677 67.2405 52.7886 67.2405 52.9147C67.2405 53.0408 67.1905 53.1617 67.1013 53.2509C67.0121 53.3401 66.8912 53.3901 66.7651 53.3901Z" fill="#19C2EF"/>
<path d="M40 45.2294C38.9658 45.2294 37.9547 44.9227 37.0948 44.3481C36.2349 43.7735 35.5646 42.9568 35.1688 42.0013C34.773 41.0458 34.6695 39.9944 34.8713 38.98C35.073 37.9656 35.5711 37.0339 36.3024 36.3025C37.0337 35.5712 37.9655 35.0732 38.9798 34.8714C39.9942 34.6696 41.0456 34.7732 42.0011 35.169C42.9567 35.5648 43.7734 36.235 44.3479 37.095C44.9225 37.9549 45.2292 38.9659 45.2292 40.0002C45.2276 41.3866 44.6762 42.7157 43.6959 43.696C42.7156 44.6764 41.3864 45.2278 40 45.2294ZM40 35.7215C39.1538 35.7215 38.3266 35.9724 37.623 36.4425C36.9194 36.9126 36.371 37.5808 36.0471 38.3626C35.7233 39.1444 35.6385 40.0046 35.8036 40.8346C35.9686 41.6645 36.3761 42.4269 36.9744 43.0253C37.5728 43.6237 38.3351 44.0312 39.1651 44.1963C39.995 44.3614 40.8553 44.2767 41.6371 43.9529C42.4189 43.6291 43.0871 43.0807 43.5573 42.3771C44.0274 41.6736 44.2784 40.8464 44.2784 40.0002C44.2772 38.8658 43.826 37.7783 43.0239 36.9762C42.2218 36.174 41.1343 35.7228 40 35.7215Z" fill="#19C2EF"/>
<g opacity="0.5">
<path d="M40.005 16.1009L39.9889 17.757L39.6183 17.7532L39.6345 16.0974L40.005 16.1009Z" fill="#DC9535"/>
<path d="M38.6878 16.1144L38.763 17.7687L38.3928 17.7858L38.3176 16.1311L38.6878 16.1144Z" fill="#DC9535"/>
<path d="M37.3708 16.2011L37.5375 17.8487L37.169 17.886L37.0022 16.2384L37.3708 16.2011Z" fill="#DC9535"/>
<path d="M36.0657 16.3597L36.3238 17.9959L35.9577 18.0535L35.6997 16.4176L36.0657 16.3597Z" fill="#DC9535"/>
<path d="M34.7709 16.5905L35.1192 18.2096L34.7569 18.2878L34.4086 16.6687L34.7709 16.5905Z" fill="#DC9535"/>
<path d="M33.489 16.8935L33.9264 18.4909L33.5692 18.5887L33.1317 16.9913L33.489 16.8935Z" fill="#DC9535"/>
<path d="M32.2272 17.2665L32.7525 18.8371L32.4009 18.9546L31.8758 17.384L32.2272 17.2665Z" fill="#DC9535"/>
<path d="M30.9887 17.7083L31.5995 19.2478L31.2553 19.3844L30.6443 17.8449L30.9887 17.7083Z" fill="#DC9535"/>
<path d="M29.7759 18.2179L30.4707 19.7213L30.1342 19.8766L29.4393 18.3733L29.7759 18.2179Z" fill="#DC9535"/>
<path d="M28.5875 18.7963L29.3641 20.2592L29.037 20.4328L28.2605 18.9699L28.5875 18.7963Z" fill="#DC9535"/>
<path d="M27.4427 19.4335L28.2979 20.8516L27.9808 21.0429L27.1254 19.625L27.4427 19.4335Z" fill="#DC9535"/>
<path d="M26.3279 20.1361L27.2595 21.5056L26.9533 21.7138L26.0217 20.3447L26.3279 20.1361Z" fill="#DC9535"/>
<path d="M25.254 20.8986L26.2595 22.2145L25.9647 22.4395L24.9597 21.1236L25.254 20.8986Z" fill="#DC9535"/>
<path d="M24.2238 21.7184L25.2998 22.9777L25.0179 23.2186L23.9421 21.9593L24.2238 21.7184Z" fill="#DC9535"/>
<path d="M23.2425 22.5914L24.3855 23.7899L24.1174 24.0458L22.9742 22.8473L23.2425 22.5914Z" fill="#DC9535"/>
<path d="M22.309 23.5176L23.5162 24.6518L23.2622 24.9217L22.0552 23.7876L22.309 23.5176Z" fill="#DC9535"/>
<path d="M21.4263 24.4955L22.694 25.5615L22.4553 25.845L21.1878 24.7793L21.4263 24.4955Z" fill="#DC9535"/>
<path d="M20.5997 25.5195L21.9238 26.5139L21.7013 26.8102L20.3771 25.8159L20.5997 25.5195Z" fill="#DC9535"/>
<path d="M19.8307 26.5873L21.208 27.507L21.0022 27.8151L19.625 26.8954L19.8307 26.5873Z" fill="#DC9535"/>
<path d="M19.1216 27.6962L20.5474 28.5383L20.359 28.8573L18.9329 28.0149L19.1216 27.6962Z" fill="#DC9535"/>
<path d="M18.4742 28.8441L19.945 29.6061L19.7745 29.9351L18.3039 29.1731L18.4742 28.8441Z" fill="#DC9535"/>
<path d="M17.8927 30.0249L19.4032 30.7037L19.2511 31.0419L17.7405 30.3627L17.8927 30.0249Z" fill="#DC9535"/>
<path d="M17.3772 31.2354L18.9229 31.83L18.7901 32.1757L17.2443 31.5814L17.3772 31.2354Z" fill="#DC9535"/>
<path d="M16.9294 32.4736L18.506 32.9815L18.3921 33.334L16.8159 32.8264L16.9294 32.4736Z" fill="#DC9535"/>
<path d="M16.5517 33.7323L18.1538 34.1524L18.0598 34.511L16.4576 34.0904L16.5517 33.7323Z" fill="#DC9535"/>
<path d="M16.2426 35.0131L17.8651 35.3447L17.7908 35.7078L16.1683 35.3758L16.2426 35.0131Z" fill="#DC9535"/>
<path d="M16.0063 36.3022L17.6431 36.5542L17.5866 36.9202L15.9499 36.6685L16.0063 36.3022Z" fill="#DC9535"/>
<path d="M15.8366 37.6118L17.4858 37.7662L17.451 38.1349L15.8022 37.9807L15.8366 37.6118Z" fill="#DC9535"/>
<path d="M15.7401 38.9218L17.3952 38.9862L17.3806 39.3565L15.7258 39.2922L15.7401 38.9218Z" fill="#DC9535"/>
<path d="M15.7154 40.2407L17.3715 40.2134L17.3774 40.5844L15.7216 40.6111L15.7154 40.2407Z" fill="#DC9535"/>
<path d="M15.7632 41.5564L17.4152 41.438L17.4416 41.8072L15.7897 41.9259L15.7632 41.5564Z" fill="#DC9535"/>
<path d="M15.8838 42.8662L17.5264 42.6562L17.5733 43.0234L15.9307 43.2337L15.8838 42.8662Z" fill="#DC9535"/>
<path d="M16.0765 44.1669L17.7048 43.8661L17.7723 44.2307L16.1436 44.5315L16.0765 44.1669Z" fill="#DC9535"/>
<path d="M16.3415 45.4562L17.9509 45.0658L18.0383 45.4259L16.4286 45.8163L16.3415 45.4562Z" fill="#DC9535"/>
<path d="M16.6782 46.7312L18.2635 46.2521L18.3707 46.6069L16.7854 47.0857L16.6782 46.7312Z" fill="#DC9535"/>
<path d="M17.0829 47.9805L18.6393 47.4147L18.7662 47.7628L17.2097 48.3286L17.0829 47.9805Z" fill="#DC9535"/>
<path d="M17.5578 49.2095L19.0808 48.5586L19.2264 48.8991L17.7034 49.55L17.5578 49.2095Z" fill="#DC9535"/>
<path d="M18.0981 50.4072L19.5831 49.6737L19.7472 50.0059L18.2622 50.7394L18.0981 50.4072Z" fill="#DC9535"/>
<path d="M18.7063 51.579L20.1486 50.765L20.3309 51.0878L18.8886 51.9018L18.7063 51.579Z" fill="#DC9535"/>
<path d="M19.3748 52.7105L20.7704 51.8187L20.97 52.1306L19.5743 53.0224L19.3748 52.7105Z" fill="#DC9535"/>
<path d="M20.1033 53.8019L21.4481 52.8355L21.6644 53.1363L20.3197 54.1033L20.1033 53.8019Z" fill="#DC9535"/>
<path d="M20.8933 54.856L22.1833 53.8173L22.4155 54.1057L21.1257 55.1447L20.8933 54.856Z" fill="#DC9535"/>
<path d="M21.7399 55.8654L22.9709 54.7574L23.2186 55.0327L21.9878 56.1407L21.7399 55.8654Z" fill="#DC9535"/>
<path d="M22.638 56.8246L23.8065 55.6508L24.0691 55.9122L22.9006 57.086L22.638 56.8246Z" fill="#DC9535"/>
<path d="M23.5889 57.7343L24.6913 56.4985L24.9677 56.7453L23.8653 57.9811L23.5889 57.7343Z" fill="#DC9535"/>
<path d="M24.5869 58.5894L25.6198 57.2949L25.9092 57.5257L24.8767 58.8203L24.5869 58.5894Z" fill="#DC9535"/>
<path d="M25.6331 59.3904L26.5929 58.0406L26.895 58.2554L25.9349 59.6051L25.6331 59.3904Z" fill="#DC9535"/>
<path d="M26.7222 60.1323L27.6059 58.7321L27.9192 58.9294L27.0355 60.3303L26.7222 60.1323Z" fill="#DC9535"/>
<path d="M27.8477 60.8118L28.6525 59.3643L28.9766 59.544L28.1717 60.9919L27.8477 60.8118Z" fill="#DC9535"/>
<path d="M29.0112 61.4281L29.7346 59.9382L30.068 60.0998L29.3446 61.5899L29.0112 61.4281Z" fill="#DC9535"/>
<path d="M30.2062 61.9786L30.8458 60.4511L31.1876 60.5942L30.5481 62.1219L30.2062 61.9786Z" fill="#DC9535"/>
<path d="M31.4343 62.4638L31.9879 60.9029L32.3371 61.0269L31.7834 62.5878L31.4343 62.4638Z" fill="#DC9535"/>
<path d="M32.6797 62.8778L33.1464 61.2889L33.5018 61.3935L33.0352 62.9821L32.6797 62.8778Z" fill="#DC9535"/>
<path d="M33.9533 63.2243L34.3318 61.6119L34.6927 61.6968L34.314 63.3092L33.9533 63.2243Z" fill="#DC9535"/>
<path d="M35.2388 63.4993L35.5289 61.8691L35.8939 61.934L35.6038 63.5646L35.2388 63.4993Z" fill="#DC9535"/>
<path d="M36.5334 63.7041L36.732 62.06L37.0999 62.1043L36.901 63.7484L36.5334 63.7041Z" fill="#DC9535"/>
<path d="M37.8375 63.8379L37.9501 62.1856L38.3199 62.2109L38.2073 63.8629L37.8375 63.8379Z" fill="#DC9535"/>
<path d="M39.1527 63.9013L39.1744 62.2452L39.545 62.2502L39.5231 63.9066L39.1527 63.9013Z" fill="#DC9535"/>
<path d="M40.4657 63.8926L40.3962 62.2379L40.7665 62.2224L40.8358 63.877L40.4657 63.8926Z" fill="#DC9535"/>
<path d="M74.5525 36.3155H69.4259C69.2998 36.3155 69.1788 36.2654 69.0897 36.1762C69.0005 36.0871 68.9504 35.9661 68.9504 35.84C68.9504 35.714 69.0005 35.593 69.0897 35.5039C69.1788 35.4147 69.2998 35.3646 69.4259 35.3646H74.5525C74.6786 35.3646 74.7996 35.4147 74.8887 35.5039C74.9779 35.593 75.028 35.714 75.028 35.84C75.028 35.9661 74.9779 36.0871 74.8887 36.1762C74.7996 36.2654 74.6786 36.3155 74.5525 36.3155Z" fill="#DC9535"/>
<path d="M74.5526 44.6346H69.4259C69.2998 44.6346 69.179 44.5845 69.0898 44.4954C69.0007 44.4062 68.9506 44.2853 68.9506 44.1593C68.9506 44.0332 69.0007 43.9124 69.0898 43.8232C69.179 43.7341 69.2998 43.684 69.4259 43.684H74.5526C74.6786 43.684 74.7995 43.7341 74.8886 43.8232C74.9778 43.9124 75.0278 44.0332 75.0278 44.1593C75.0278 44.2853 74.9778 44.4062 74.8886 44.4954C74.7995 44.5845 74.6786 44.6346 74.5526 44.6346Z" fill="#DC9535"/>
<path d="M10.3758 36.3155H5.24916C5.12307 36.3155 5.00215 36.2654 4.91299 36.1762C4.82383 36.0871 4.77374 35.9661 4.77374 35.84C4.77374 35.714 4.82383 35.593 4.91299 35.5039C5.00215 35.4147 5.12307 35.3646 5.24916 35.3646H10.3758C10.5019 35.3646 10.6229 35.4147 10.712 35.5039C10.8012 35.593 10.8513 35.714 10.8513 35.84C10.8513 35.9661 10.8012 36.0871 10.712 36.1762C10.6229 36.2654 10.5019 36.3155 10.3758 36.3155Z" fill="#DC9535"/>
<path d="M10.3759 44.6346H5.24919C5.12314 44.6346 5.00226 44.5845 4.91313 44.4954C4.824 44.4062 4.77393 44.2853 4.77393 44.1593C4.77393 44.0332 4.824 43.9124 4.91313 43.8232C5.00226 43.7341 5.12314 43.684 5.24919 43.684H10.3759C10.5019 43.684 10.6228 43.7341 10.7119 43.8232C10.8011 43.9124 10.8511 44.0332 10.8511 44.1593C10.8511 44.2853 10.8011 44.4062 10.7119 44.4954C10.6228 44.5845 10.5019 44.6346 10.3759 44.6346Z" fill="#DC9535"/>
</g>
<path d="M16.776 7.22429H11.4761L5.2492 13.4514V19.8459C2.3174 24.8866 0.525655 30.5084 0 36.316H2.98353C3.84652 27.7696 7.63557 19.7838 13.7095 13.7098C19.7835 7.63586 27.7693 3.84681 36.3157 2.98383V0C29.2782 0.63758 22.5357 3.13044 16.776 7.22429Z" fill="url(#paint3_linear_1_28)"/>
<defs>
<filter id="filter0_d_1_28" x="4.81319" y="4.81334" width="70.3736" height="70.3736" filterUnits="userSpaceOnUse" color-interpolation-filters="sRGB">
<feFlood flood-opacity="0" result="BackgroundImageFix"/>
<feColorMatrix in="SourceAlpha" type="matrix" values="0 0 0 0 0 0 0 0 0 0 0 0 0 0 0 0 0 0 127 0" result="hardAlpha"/>
<feOffset/>
<feGaussianBlur stdDeviation="2.5"/>
<feComposite in2="hardAlpha" operator="out"/>
<feColorMatrix type="matrix" values="0 0 0 0 0.976471 0 0 0 0 0.811765 0 0 0 0 0.301961 0 0 0 0.5 0"/>
<feBlend mode="normal" in2="BackgroundImageFix" result="effect1_dropShadow_1_28"/>
<feBlend mode="normal" in="SourceGraphic" in2="effect1_dropShadow_1_28" result="shape"/>
</filter>
<filter id="filter1_d_1_28" x="27.623" y="27.6232" width="24.7538" height="24.7538" filterUnits="userSpaceOnUse" color-interpolation-filters="sRGB">
<feFlood flood-opacity="0" result="BackgroundImageFix"/>
<feColorMatrix in="SourceAlpha" type="matrix" values="0 0 0 0 0 0 0 0 0 0 0 0 0 0 0 0 0 0 127 0" result="hardAlpha"/>
<feOffset/>
<feGaussianBlur stdDeviation="5"/>
<feComposite in2="hardAlpha" operator="out"/>
<feColorMatrix type="matrix" values="0 0 0 0 1 0 0 0 0 0.583588 0 0 0 0 0.00423177 0 0 0 1 0"/>
<feBlend mode="normal" in2="BackgroundImageFix" result="effect1_dropShadow_1_28"/>
<feBlend mode="normal" in="SourceGraphic" in2="effect1_dropShadow_1_28" result="shape"/>
</filter>
<linearGradient id="paint0_linear_1_28" x1="20.1269" y1="43.6842" x2="20.1269" y2="76.0618" gradientUnits="userSpaceOnUse">
<stop stop-color="#0974F8"/>
<stop offset="1" stop-color="#4FB2FE"/>
</linearGradient>
<linearGradient id="paint1_linear_1_28" x1="59.873" y1="43.6842" x2="59.873" y2="76.0618" gradientUnits="userSpaceOnUse">
<stop stop-color="#0974F8"/>
<stop offset="1" stop-color="#4FB2FE"/>
</linearGradient>
<linearGradient id="paint2_linear_1_28" x1="59.873" y1="3.93813" x2="59.873" y2="36.3159" gradientUnits="userSpaceOnUse">
<stop stop-color="#0974F8"/>
<stop offset="1" stop-color="#4FB2FE"/>
</linearGradient>
<linearGradient id="paint3_linear_1_28" x1="18.1579" y1="0" x2="18.1579" y2="36.316" gradientUnits="userSpaceOnUse">
<stop stop-color="#0974F8"/>
<stop offset="1" stop-color="#4FB2FE"/>
</linearGradient>
</defs>
</svg>
